<?xml version="1.0" standalone="no"?><!DOCTYPE svg PUBLIC "-//W3C//DTD SVG 1.1//EN" "http://www.w3.org/Graphics/SVG/1.1/DTD/svg11.dtd"><svg width="512px" height="512px" version="1.1" xmlns="http://www.w3.org/2000/svg" xmlns:xlink="http://www.w3.org/1999/xlink" xml:space="preserve" style="fill-rule:evenodd;clip-rule:evenodd;stroke-linejoin:round;stroke-miterlimit:1.41421;"><g><g transform="matrix(28.4444,0,0,28.4444,-28.4444,-28.4444)"><path d="M11,6l-0.82,0c-1.11,0 -2.18,1.2 -2.18,2.16l0,1.84l-3,3l0,-3l-2,0c-1.1,0 -2,-0.9 -2,-2l0,-5c0,-1.1 0.9,-2 2,-2l6,0c1.1,0 2,0.9 2,2ZM11,7l6,0c1.1,0 2,0.9 2,2l0,5c0,1.1 -0.9,2 -2,2l-2,0l0,3l-3,-3l-1,0c-1.1,0 -2,-0.9 -2,-2l0,-5c0,-1.1 0.9,-2 2,-2Z" style="fill:url(#tag1);fill-rule:nonzero;stroke-width:0.01px;stroke:url(#tag2);"/></g></g><defs><linearGradient id="tag1" x1="0" y1="0" x2="1" y2="0" gradientUnits="userSpaceOnUse" gradientTransform="matrix(18,0,0,18,1,10)"><stop offset="0%" style="stop-color:#9e119d;stop-opacity:1"/><stop offset="100%" style="stop-color:#055bff;stop-opacity:1"/></linearGradient><linearGradient id="tag2" x1="0" y1="0" x2="1" y2="0" gradientUnits="userSpaceOnUse" gradientTransform="matrix(18,0,0,18,1,10)"><stop offset="0%" style="stop-color:#eafeff;stop-opacity:1"/><stop offset="100%" style="stop-color:#049cff;stop-opacity:1"/></linearGradient></defs></svg>