<?xml version="1.0" standalone="no"?><!DOCTYPE svg PUBLIC "-//W3C//DTD SVG 1.1//EN" "http://www.w3.org/Graphics/SVG/1.1/DTD/svg11.dtd"><svg width="435px" height="85px" version="1.1" xmlns="http://www.w3.org/2000/svg" xmlns:xlink="http://www.w3.org/1999/xlink" xml:space="preserve" style="fill-rule:evenodd;clip-rule:evenodd;stroke-linejoin:round;stroke-miterlimit:1.41421;"><g><g transform="matrix(3.61431,0,0,3.61431,-3.61431,6.47792)"><path d="M11,6l-0.82,0c-1.11,0 -2.18,1.2 -2.18,2.16l0,1.84l-3,3l0,-3l-2,0c-1.1,0 -2,-0.9 -2,-2l0,-5c0,-1.1 0.9,-2 2,-2l6,0c1.1,0 2,0.9 2,2ZM11,7l6,0c1.1,0 2,0.9 2,2l0,5c0,1.1 -0.9,2 -2,2l-2,0l0,3l-3,-3l-1,0c-1.1,0 -2,-0.9 -2,-2l0,-5c0,-1.1 0.9,-2 2,-2Z" style="fill:url(#tag1);fill-rule:nonzero;"/></g><g transform="matrix(4.63013,0,0,4.63013,-417.56,-180.025)"><path d="M104.234,53.1294l1.19531,0l0,-7.32812l-1.10156,0l0,-0.867188l2.1875,0l0.0625,0.835938c0.296875,-0.3125 0.641927,-0.549479 1.03516,-0.710938c0.393229,-0.161458 0.800781,-0.242188 1.22266,-0.242188c0.484375,0 0.919271,0.0859375 1.30469,0.257812c0.385417,0.171875 0.71224,0.40625 0.980469,0.703125c0.268229,0.296875 0.473958,0.644531 0.617188,1.04297c0.143229,0.398438 0.214844,0.824219 0.214844,1.27734c0,0.447917 -0.0742188,0.869792 -0.222656,1.26562c-0.148438,0.395833 -0.359375,0.742188 -0.632812,1.03906c-0.273438,0.296875 -0.602865,0.53125 -0.988281,0.703125c-0.385417,0.171875 -0.815104,0.257812 -1.28906,0.257812c-0.421875,0 -0.826823,-0.0690104 -1.21484,-0.207031c-0.388021,-0.138021 -0.730469,-0.342448 -1.02734,-0.613281l0,2.59375l1.28906,0l0,0.960938l-3.63281,0l0,-0.96875ZM108.648,50.3872c0.333333,0 0.630208,-0.0585938 0.890625,-0.175781c0.260417,-0.117188 0.479167,-0.277344 0.65625,-0.480469c0.177083,-0.203125 0.3125,-0.441406 0.40625,-0.714844c0.09375,-0.273438 0.140625,-0.56901 0.140625,-0.886719c0,-0.3125 -0.0481771,-0.609375 -0.144531,-0.890625c-0.0963542,-0.28125 -0.236979,-0.528646 -0.421875,-0.742188c-0.184896,-0.213542 -0.407552,-0.382812 -0.667969,-0.507812c-0.260417,-0.125 -0.554688,-0.1875 -0.882812,-0.1875c-0.234375,0 -0.454427,0.03125 -0.660156,0.09375c-0.205729,0.0625 -0.394531,0.140625 -0.566406,0.234375c-0.171875,0.09375 -0.326823,0.197917 -0.464844,0.3125c-0.138021,0.114583 -0.25651,0.221354 -0.355469,0.320312l0,2.8125c0.119792,0.09375 0.251302,0.188802 0.394531,0.285156c0.143229,0.0963542 0.300781,0.183594 0.472656,0.261719c0.171875,0.078125 0.358073,0.141927 0.558594,0.191406c0.200521,0.0494792 0.415365,0.0742188 0.644531,0.0742188Z" style="fill:#fff;"/><path d="M113.195,45.6919c0.28125,-0.28125 0.630208,-0.497396 1.04688,-0.648438c0.416667,-0.151042 0.893229,-0.226562 1.42969,-0.226562c0.489583,0 0.898438,0.0585938 1.22656,0.175781c0.328125,0.117188 0.588542,0.272135 0.78125,0.464844c0.192708,0.192708 0.329427,0.414062 0.410156,0.664062c0.0807292,0.25 0.121094,0.507812 0.121094,0.773438l0,3.49219l1.125,0l0,0.835938l-2.16406,0l-0.015625,-0.648438c-0.208333,0.151042 -0.403646,0.277344 -0.585938,0.378906c-0.182292,0.101562 -0.360677,0.182292 -0.535156,0.242188c-0.174479,0.0598958 -0.35026,0.102865 -0.527344,0.128906c-0.177083,0.0260417 -0.361979,0.0390625 -0.554688,0.0390625c-0.328125,0 -0.623698,-0.0507812 -0.886719,-0.152344c-0.263021,-0.101562 -0.486979,-0.235677 -0.671875,-0.402344c-0.184896,-0.166667 -0.325521,-0.360677 -0.421875,-0.582031c-0.0963542,-0.221354 -0.144531,-0.451823 -0.144531,-0.691406c0,-0.390625 0.0716146,-0.713542 0.214844,-0.96875c0.143229,-0.255208 0.33724,-0.458333 0.582031,-0.609375c0.244792,-0.151042 0.532552,-0.25651 0.863281,-0.316406c0.330729,-0.0598958 0.68099,-0.0898438 1.05078,-0.0898438c0.25,0 0.497396,0.0130208 0.742188,0.0390625c0.244792,0.0260417 0.5,0.0651042 0.765625,0.117188l0,-0.757812c0,-0.21875 -0.0377604,-0.404948 -0.113281,-0.558594c-0.0755208,-0.153646 -0.179688,-0.277344 -0.3125,-0.371094c-0.132812,-0.09375 -0.28776,-0.16276 -0.464844,-0.207031c-0.177083,-0.0442708 -0.364583,-0.0664062 -0.5625,-0.0664062c-0.359375,0 -0.683594,0.0585938 -0.972656,0.175781c-0.289062,0.117188 -0.52474,0.295573 -0.707031,0.535156l-0.71875,-0.765625ZM117.047,48.4732c-0.166667,-0.00520833 -0.376302,-0.0273438 -0.628906,-0.0664062c-0.252604,-0.0390625 -0.519531,-0.0585938 -0.800781,-0.0585938c-0.203125,0 -0.40625,0.0143229 -0.609375,0.0429688c-0.203125,0.0286458 -0.384115,0.0846354 -0.542969,0.167969c-0.158854,0.0833333 -0.28776,0.203125 -0.386719,0.359375c-0.0989583,0.15625 -0.148438,0.361979 -0.148438,0.617188c0,0.135417 0.0260417,0.264323 0.078125,0.386719c0.0520833,0.122396 0.128906,0.227865 0.230469,0.316406c0.101562,0.0885417 0.22526,0.158854 0.371094,0.210938c0.145833,0.0520833 0.315104,0.078125 0.507812,0.078125c0.171875,0 0.346354,-0.015625 0.523438,-0.046875c0.177083,-0.03125 0.35026,-0.0768229 0.519531,-0.136719c0.169271,-0.0598958 0.329427,-0.132812 0.480469,-0.21875c0.151042,-0.0859375 0.286458,-0.183594 0.40625,-0.292969l0,-1.35938Z" style="fill:#fff;"/><path d="M120.969,45.8013l-1.11719,0l0,-0.867188l2.25781,0l0.0390625,0.835938c0.359375,-0.302083 0.714844,-0.536458 1.06641,-0.703125c0.351562,-0.166667 0.730469,-0.25 1.13672,-0.25c0.421875,0 0.776042,0.0963542 1.0625,0.289062c0.286458,0.192708 0.5,0.460938 0.640625,0.804688c0.416667,-0.354167 0.807292,-0.625 1.17188,-0.8125c0.364583,-0.1875 0.755208,-0.28125 1.17188,-0.28125c0.322917,0 0.601562,0.0507812 0.835938,0.152344c0.234375,0.101562 0.427083,0.240885 0.578125,0.417969c0.151042,0.177083 0.263021,0.385417 0.335938,0.625c0.0729167,0.239583 0.109375,0.497396 0.109375,0.773438l0,3.60156l1.13281,0l0,0.835938l-3.16406,0l0,-0.835938l0.882812,0l0,-3.35938c0,-0.375 -0.0768229,-0.673177 -0.230469,-0.894531c-0.153646,-0.221354 -0.410156,-0.332031 -0.769531,-0.332031c-0.177083,0 -0.360677,0.0351562 -0.550781,0.105469c-0.190104,0.0703125 -0.371094,0.157552 -0.542969,0.261719c-0.171875,0.104167 -0.328125,0.216146 -0.46875,0.335938c-0.140625,0.119792 -0.25,0.231771 -0.328125,0.335938l0,3.54688l0.976562,0l0,0.835938l-3.03906,0l0,-0.835938l0.875,0l0,-3.33594c0,-0.442708 -0.0859375,-0.761719 -0.257812,-0.957031c-0.171875,-0.195312 -0.421875,-0.292969 -0.75,-0.292969c-0.328125,0 -0.639323,0.0820312 -0.933594,0.246094c-0.294271,0.164062 -0.608073,0.402344 -0.941406,0.714844l0,3.625l0.976562,0l0,0.835938l-3.32812,0l0,-0.835938l1.17188,0l0,-4.58594Z" style="fill:#fff;"/><path d="M133.195,48.3716c0.015625,0.302083 0.078125,0.576823 0.1875,0.824219c0.109375,0.247396 0.260417,0.459635 0.453125,0.636719c0.192708,0.177083 0.423177,0.313802 0.691406,0.410156c0.268229,0.0963542 0.571615,0.144531 0.910156,0.144531c0.203125,0 0.403646,-0.0234375 0.601562,-0.0703125c0.197917,-0.046875 0.385417,-0.113281 0.5625,-0.199219c0.177083,-0.0859375 0.341146,-0.188802 0.492188,-0.308594c0.151042,-0.119792 0.278646,-0.255208 0.382812,-0.40625l0.796875,0.59375c-0.265625,0.40625 -0.634115,0.735677 -1.10547,0.988281c-0.471354,0.252604 -1.05859,0.378906 -1.76172,0.378906c-0.541667,0 -1.02865,-0.0859375 -1.46094,-0.257812c-0.432292,-0.171875 -0.798177,-0.40625 -1.09766,-0.703125c-0.299479,-0.296875 -0.529948,-0.644531 -0.691406,-1.04297c-0.161458,-0.398438 -0.242188,-0.824219 -0.242188,-1.27734c0,-0.473958 0.0885417,-0.911458 0.265625,-1.3125c0.177083,-0.401042 0.419271,-0.746094 0.726562,-1.03516c0.307292,-0.289062 0.671875,-0.514323 1.09375,-0.675781c0.421875,-0.161458 0.880208,-0.242188 1.375,-0.242188c0.515625,0 0.96875,0.0924479 1.35938,0.277344c0.390625,0.184896 0.717448,0.434896 0.980469,0.75c0.263021,0.315104 0.459635,0.679688 0.589844,1.09375c0.130208,0.414062 0.195312,0.847656 0.195312,1.30078l0,0.132812l-5.30469,0ZM137.375,47.5747c-0.03125,-0.255208 -0.0989583,-0.490885 -0.203125,-0.707031c-0.104167,-0.216146 -0.239583,-0.403646 -0.40625,-0.5625c-0.166667,-0.158854 -0.365885,-0.282552 -0.597656,-0.371094c-0.231771,-0.0885417 -0.490885,-0.132812 -0.777344,-0.132812c-0.317708,0 -0.60026,0.0429688 -0.847656,0.128906c-0.247396,0.0859375 -0.460938,0.205729 -0.640625,0.359375c-0.179688,0.153646 -0.325521,0.339844 -0.4375,0.558594c-0.111979,0.21875 -0.191406,0.460938 -0.238281,0.726562l4.14844,0Z" style="fill:#fff;"/><path d="M142.734,54.0357c-0.244792,0 -0.471354,-0.0143229 -0.679688,-0.0429688c-0.208333,-0.0286458 -0.407552,-0.0729167 -0.597656,-0.132812c-0.190104,-0.0598958 -0.375,-0.136719 -0.554688,-0.230469c-0.179688,-0.09375 -0.360677,-0.205729 -0.542969,-0.335938l0.523438,-0.796875c0.265625,0.192708 0.552083,0.335938 0.859375,0.429688c0.307292,0.09375 0.619792,0.140625 0.9375,0.140625c0.234375,0 0.47526,-0.03125 0.722656,-0.09375c0.247396,-0.0625 0.473958,-0.166667 0.679688,-0.3125c0.205729,-0.145833 0.375,-0.33724 0.507812,-0.574219c0.132812,-0.236979 0.199219,-0.532552 0.199219,-0.886719l0,-0.703125c-0.109375,0.104167 -0.248698,0.199219 -0.417969,0.285156c-0.169271,0.0859375 -0.355469,0.16276 -0.558594,0.230469c-0.203125,0.0677083 -0.415365,0.119792 -0.636719,0.15625c-0.221354,0.0364583 -0.438802,0.0546875 -0.652344,0.0546875c-0.484375,0 -0.919271,-0.0807292 -1.30469,-0.242188c-0.385417,-0.161458 -0.713542,-0.38151 -0.984375,-0.660156c-0.270833,-0.278646 -0.477865,-0.604167 -0.621094,-0.976562c-0.143229,-0.372396 -0.214844,-0.766927 -0.214844,-1.18359c0,-0.453125 0.0742188,-0.88151 0.222656,-1.28516c0.148438,-0.403646 0.360677,-0.757812 0.636719,-1.0625c0.276042,-0.304688 0.609375,-0.546875 1,-0.726562c0.390625,-0.179688 0.828125,-0.269531 1.3125,-0.269531c0.828125,0 1.56771,0.289062 2.21875,0.867188l0,-0.75l2.35156,0l0,0.867188l-1.17969,0l0,3.32812c0,0.291667 0.00130208,0.554688 0.00390625,0.789062c0.00260417,0.234375 0.00390625,0.428385 0.00390625,0.582031c0,0.153646 0,0.246094 0,0.277344c0,0.619792 -0.0950521,1.13802 -0.285156,1.55469c-0.190104,0.416667 -0.4375,0.751302 -0.742188,1.00391c-0.304688,0.252604 -0.64974,0.432292 -1.03516,0.539062c-0.385417,0.106771 -0.776042,0.160156 -1.17188,0.160156ZM142.734,50.2466c0.223958,0 0.436198,-0.0260417 0.636719,-0.078125c0.200521,-0.0520833 0.386719,-0.117188 0.558594,-0.195312c0.171875,-0.078125 0.329427,-0.165365 0.472656,-0.261719c0.143229,-0.0963542 0.272135,-0.188802 0.386719,-0.277344l0,-2.67188c-0.104167,-0.0989583 -0.22526,-0.204427 -0.363281,-0.316406c-0.138021,-0.111979 -0.292969,-0.216146 -0.464844,-0.3125c-0.171875,-0.0963542 -0.358073,-0.175781 -0.558594,-0.238281c-0.200521,-0.0625 -0.415365,-0.09375 -0.644531,-0.09375c-0.328125,0 -0.622396,0.0611979 -0.882812,0.183594c-0.260417,0.122396 -0.483073,0.289062 -0.667969,0.5c-0.184896,0.210938 -0.325521,0.458333 -0.421875,0.742188c-0.0963542,0.283854 -0.144531,0.584635 -0.144531,0.902344c0,0.291667 0.046875,0.566406 0.140625,0.824219c0.09375,0.257812 0.229167,0.483073 0.40625,0.675781c0.177083,0.192708 0.395833,0.34375 0.65625,0.453125c0.260417,0.109375 0.557292,0.164062 0.890625,0.164062Z" style="fill:#fff;"/><path d="M147.758,50.3872l1.05469,0l0,-4.58594l-1.05469,0l0,-0.867188l2.21875,0l0,5.45312l1.0625,0l0,0.835938l-3.28125,0l0,-0.835938ZM148.672,42.8951c0,-0.09375 0.0182292,-0.182292 0.0546875,-0.265625c0.0364583,-0.0833333 0.0872396,-0.15625 0.152344,-0.21875c0.0651042,-0.0625 0.140625,-0.110677 0.226562,-0.144531c0.0859375,-0.0338542 0.178385,-0.0507812 0.277344,-0.0507812c0.203125,0 0.373698,0.0651042 0.511719,0.195312c0.138021,0.130208 0.207031,0.291667 0.207031,0.484375c0,0.192708 -0.0690104,0.354167 -0.207031,0.484375c-0.138021,0.130208 -0.308594,0.195312 -0.511719,0.195312c-0.0989583,0 -0.191406,-0.0169271 -0.277344,-0.0507812c-0.0859375,-0.0338542 -0.161458,-0.0820312 -0.226562,-0.144531c-0.0651042,-0.0625 -0.115885,-0.135417 -0.152344,-0.21875c-0.0364583,-0.0833333 -0.0546875,-0.171875 -0.0546875,-0.265625Z" style="fill:#fff;"/><path d="M152.07,45.6919c0.28125,-0.28125 0.630208,-0.497396 1.04688,-0.648438c0.416667,-0.151042 0.893229,-0.226562 1.42969,-0.226562c0.489583,0 0.898438,0.0585938 1.22656,0.175781c0.328125,0.117188 0.588542,0.272135 0.78125,0.464844c0.192708,0.192708 0.329427,0.414062 0.410156,0.664062c0.0807292,0.25 0.121094,0.507812 0.121094,0.773438l0,3.49219l1.125,0l0,0.835938l-2.16406,0l-0.015625,-0.648438c-0.208333,0.151042 -0.403646,0.277344 -0.585938,0.378906c-0.182292,0.101562 -0.360677,0.182292 -0.535156,0.242188c-0.174479,0.0598958 -0.35026,0.102865 -0.527344,0.128906c-0.177083,0.0260417 -0.361979,0.0390625 -0.554688,0.0390625c-0.328125,0 -0.623698,-0.0507812 -0.886719,-0.152344c-0.263021,-0.101562 -0.486979,-0.235677 -0.671875,-0.402344c-0.184896,-0.166667 -0.325521,-0.360677 -0.421875,-0.582031c-0.0963542,-0.221354 -0.144531,-0.451823 -0.144531,-0.691406c0,-0.390625 0.0716146,-0.713542 0.214844,-0.96875c0.143229,-0.255208 0.33724,-0.458333 0.582031,-0.609375c0.244792,-0.151042 0.532552,-0.25651 0.863281,-0.316406c0.330729,-0.0598958 0.68099,-0.0898438 1.05078,-0.0898438c0.25,0 0.497396,0.0130208 0.742188,0.0390625c0.244792,0.0260417 0.5,0.0651042 0.765625,0.117188l0,-0.757812c0,-0.21875 -0.0377604,-0.404948 -0.113281,-0.558594c-0.0755208,-0.153646 -0.179688,-0.277344 -0.3125,-0.371094c-0.132812,-0.09375 -0.28776,-0.16276 -0.464844,-0.207031c-0.177083,-0.0442708 -0.364583,-0.0664062 -0.5625,-0.0664062c-0.359375,0 -0.683594,0.0585938 -0.972656,0.175781c-0.289062,0.117188 -0.52474,0.295573 -0.707031,0.535156l-0.71875,-0.765625ZM155.922,48.4732c-0.166667,-0.00520833 -0.376302,-0.0273438 -0.628906,-0.0664062c-0.252604,-0.0390625 -0.519531,-0.0585938 -0.800781,-0.0585938c-0.203125,0 -0.40625,0.0143229 -0.609375,0.0429688c-0.203125,0.0286458 -0.384115,0.0846354 -0.542969,0.167969c-0.158854,0.0833333 -0.28776,0.203125 -0.386719,0.359375c-0.0989583,0.15625 -0.148438,0.361979 -0.148438,0.617188c0,0.135417 0.0260417,0.264323 0.078125,0.386719c0.0520833,0.122396 0.128906,0.227865 0.230469,0.316406c0.101562,0.0885417 0.22526,0.158854 0.371094,0.210938c0.145833,0.0520833 0.315104,0.078125 0.507812,0.078125c0.171875,0 0.346354,-0.015625 0.523438,-0.046875c0.177083,-0.03125 0.35026,-0.0768229 0.519531,-0.136719c0.169271,-0.0598958 0.329427,-0.132812 0.480469,-0.21875c0.151042,-0.0859375 0.286458,-0.183594 0.40625,-0.292969l0,-1.35938Z" style="fill:#fff;"/><path d="M158.375,50.3872l1.19531,0l0,-7.22656l-1.19531,0l0,-0.945312l2.35156,0l0,5.64844l2.57031,-2.0625l-1.08594,0l0,-0.867188l3.49219,0l0,0.867188l-1.03125,0l-2.59375,2.17969l2.67188,2.40625l1.01562,0l0,0.835938l-3.28906,0l0,-0.835938l0.828125,0l-2.57812,-2.32812l0,2.32812l0.820312,0l0,0.835938l-3.17188,0l0,-0.835938Z" style="fill:#fff;"/><path d="M166.789,45.6919c0.28125,-0.28125 0.630208,-0.497396 1.04688,-0.648438c0.416667,-0.151042 0.893229,-0.226562 1.42969,-0.226562c0.489583,0 0.898438,0.0585938 1.22656,0.175781c0.328125,0.117188 0.588542,0.272135 0.78125,0.464844c0.192708,0.192708 0.329427,0.414062 0.410156,0.664062c0.0807292,0.25 0.121094,0.507812 0.121094,0.773438l0,3.49219l1.125,0l0,0.835938l-2.16406,0l-0.015625,-0.648438c-0.208333,0.151042 -0.403646,0.277344 -0.585938,0.378906c-0.182292,0.101562 -0.360677,0.182292 -0.535156,0.242188c-0.174479,0.0598958 -0.35026,0.102865 -0.527344,0.128906c-0.177083,0.0260417 -0.361979,0.0390625 -0.554688,0.0390625c-0.328125,0 -0.623698,-0.0507812 -0.886719,-0.152344c-0.263021,-0.101562 -0.486979,-0.235677 -0.671875,-0.402344c-0.184896,-0.166667 -0.325521,-0.360677 -0.421875,-0.582031c-0.0963542,-0.221354 -0.144531,-0.451823 -0.144531,-0.691406c0,-0.390625 0.0716146,-0.713542 0.214844,-0.96875c0.143229,-0.255208 0.33724,-0.458333 0.582031,-0.609375c0.244792,-0.151042 0.532552,-0.25651 0.863281,-0.316406c0.330729,-0.0598958 0.68099,-0.0898438 1.05078,-0.0898438c0.25,0 0.497396,0.0130208 0.742188,0.0390625c0.244792,0.0260417 0.5,0.0651042 0.765625,0.117188l0,-0.757812c0,-0.21875 -0.0377604,-0.404948 -0.113281,-0.558594c-0.0755208,-0.153646 -0.179688,-0.277344 -0.3125,-0.371094c-0.132812,-0.09375 -0.28776,-0.16276 -0.464844,-0.207031c-0.177083,-0.0442708 -0.364583,-0.0664062 -0.5625,-0.0664062c-0.359375,0 -0.683594,0.0585938 -0.972656,0.175781c-0.289062,0.117188 -0.52474,0.295573 -0.707031,0.535156l-0.71875,-0.765625ZM170.64,48.4732c-0.166667,-0.00520833 -0.376302,-0.0273438 -0.628906,-0.0664062c-0.252604,-0.0390625 -0.519531,-0.0585938 -0.800781,-0.0585938c-0.203125,0 -0.40625,0.0143229 -0.609375,0.0429688c-0.203125,0.0286458 -0.384115,0.0846354 -0.542969,0.167969c-0.158854,0.0833333 -0.28776,0.203125 -0.386719,0.359375c-0.0989583,0.15625 -0.148438,0.361979 -0.148438,0.617188c0,0.135417 0.0260417,0.264323 0.078125,0.386719c0.0520833,0.122396 0.128906,0.227865 0.230469,0.316406c0.101562,0.0885417 0.22526,0.158854 0.371094,0.210938c0.145833,0.0520833 0.315104,0.078125 0.507812,0.078125c0.171875,0 0.346354,-0.015625 0.523438,-0.046875c0.177083,-0.03125 0.35026,-0.0768229 0.519531,-0.136719c0.169271,-0.0598958 0.329427,-0.132812 0.480469,-0.21875c0.151042,-0.0859375 0.286458,-0.183594 0.40625,-0.292969l0,-1.35938Z" style="fill:#fff;"/><path d="M173.445,50.3872l0.9375,0l0,-4.58594l-1.00781,0l0,-0.867188l1.00781,0l0.0078125,-1.07812c0,-0.296875 0.0442708,-0.55599 0.132812,-0.777344c0.0885417,-0.221354 0.21224,-0.40625 0.371094,-0.554688c0.158854,-0.148438 0.348958,-0.260417 0.570312,-0.335938c0.221354,-0.0755208 0.467448,-0.113281 0.738281,-0.113281c0.395833,0 0.729167,0.106771 1,0.320312c0.270833,0.213542 0.4375,0.515625 0.5,0.90625l-0.84375,0.273438c-0.0572917,-0.197917 -0.144531,-0.34375 -0.261719,-0.4375c-0.117188,-0.09375 -0.238281,-0.140625 -0.363281,-0.140625c-0.0833333,0 -0.165365,0.0130208 -0.246094,0.0390625c-0.0807292,0.0260417 -0.152344,0.0742188 -0.214844,0.144531c-0.0625,0.0703125 -0.113281,0.165365 -0.152344,0.285156c-0.0390625,0.119792 -0.0585938,0.273438 -0.0585938,0.460938l0,1.00781l1.19531,0l0,0.867188l-1.19531,0l0,4.58594l1.26562,0l0,0.835938l-3.38281,0l0,-0.835938Z" style="fill:#fff;"/><path d="M178.984,48.3716c0.015625,0.302083 0.078125,0.576823 0.1875,0.824219c0.109375,0.247396 0.260417,0.459635 0.453125,0.636719c0.192708,0.177083 0.423177,0.313802 0.691406,0.410156c0.268229,0.0963542 0.571615,0.144531 0.910156,0.144531c0.203125,0 0.403646,-0.0234375 0.601562,-0.0703125c0.197917,-0.046875 0.385417,-0.113281 0.5625,-0.199219c0.177083,-0.0859375 0.341146,-0.188802 0.492188,-0.308594c0.151042,-0.119792 0.278646,-0.255208 0.382812,-0.40625l0.796875,0.59375c-0.265625,0.40625 -0.634115,0.735677 -1.10547,0.988281c-0.471354,0.252604 -1.05859,0.378906 -1.76172,0.378906c-0.541667,0 -1.02865,-0.0859375 -1.46094,-0.257812c-0.432292,-0.171875 -0.798177,-0.40625 -1.09766,-0.703125c-0.299479,-0.296875 -0.529948,-0.644531 -0.691406,-1.04297c-0.161458,-0.398438 -0.242188,-0.824219 -0.242188,-1.27734c0,-0.473958 0.0885417,-0.911458 0.265625,-1.3125c0.177083,-0.401042 0.419271,-0.746094 0.726562,-1.03516c0.307292,-0.289062 0.671875,-0.514323 1.09375,-0.675781c0.421875,-0.161458 0.880208,-0.242188 1.375,-0.242188c0.515625,0 0.96875,0.0924479 1.35938,0.277344c0.390625,0.184896 0.717448,0.434896 0.980469,0.75c0.263021,0.315104 0.459635,0.679688 0.589844,1.09375c0.130208,0.414062 0.195312,0.847656 0.195312,1.30078l0,0.132812l-5.30469,0ZM183.164,47.5747c-0.03125,-0.255208 -0.0989583,-0.490885 -0.203125,-0.707031c-0.104167,-0.216146 -0.239583,-0.403646 -0.40625,-0.5625c-0.166667,-0.158854 -0.365885,-0.282552 -0.597656,-0.371094c-0.231771,-0.0885417 -0.490885,-0.132812 -0.777344,-0.132812c-0.317708,0 -0.60026,0.0429688 -0.847656,0.128906c-0.247396,0.0859375 -0.460938,0.205729 -0.640625,0.359375c-0.179688,0.153646 -0.325521,0.339844 -0.4375,0.558594c-0.111979,0.21875 -0.191406,0.460938 -0.238281,0.726562l4.14844,0Z" style="fill:#fff;"/></g></g><defs><linearGradient id="tag1" x1="0" y1="0" x2="1" y2="0" gradientUnits="userSpaceOnUse" gradientTransform="matrix(18,0,0,18,1,10)"><stop offset="0%" style="stop-color:#9e119d;stop-opacity:1"/><stop offset="100%" style="stop-color:#055bff;stop-opacity:1"/></linearGradient></defs></svg>