<?xml version="1.0" standalone="no"?><!DOCTYPE svg PUBLIC "-//W3C//DTD SVG 1.1//EN" "http://www.w3.org/Graphics/SVG/1.1/DTD/svg11.dtd"><svg width="682px" height="682px" version="1.1" xmlns="http://www.w3.org/2000/svg" xmlns:xlink="http://www.w3.org/1999/xlink" xml:space="preserve" style="fill-rule:evenodd;clip-rule:evenodd;stroke-linejoin:round;stroke-miterlimit:1.41421;"><g><g transform="matrix(37.9259,0,0,37.9259,-37.9259,-37.9259)"><path d="M11,6l-0.82,0c-1.11,0 -2.18,1.2 -2.18,2.16l0,1.84l-3,3l0,-3l-2,0c-1.1,0 -2,-0.9 -2,-2l0,-5c0,-1.1 0.9,-2 2,-2l6,0c1.1,0 2,0.9 2,2ZM11,7l6,0c1.1,0 2,0.9 2,2l0,5c0,1.1 -0.9,2 -2,2l-2,0l0,3l-3,-3l-1,0c-1.1,0 -2,-0.9 -2,-2l0,-5c0,-1.1 0.9,-2 2,-2Z" style="fill:#000;fill-rule:nonzero;"/></g></g></svg>